<svg width="147" height="154" viewBox="0 0 147 154" fill="none" xmlns="http://www.w3.org/2000/svg">
<rect width="147" height="154" rx="10" fill="#3A95FF"/>
<mask id="mask0_63_8" style="mask-type:alpha" maskUnits="userSpaceOnUse" x="0" y="0" width="147" height="154">
<rect width="147" height="154" rx="10" fill="#682D24"/>
</mask>
<g mask="url(#mask0_63_8)">
<path d="M10.6421 25.9947C-10.6037 29.2066 -16.0193 18.2326 -19.7686 11.9426V-27.4034H53.5503V44.4632H40.6362C33.6931 36.7011 31.8879 22.7828 10.6421 25.9947Z" fill="#2477D8"/>
<path d="M96.4585 25.9947C117.704 29.2066 123.12 18.2326 126.869 11.9426V-27.4034H53.5503V44.4632H66.4644C73.4075 36.7011 75.2127 22.7828 96.4585 25.9947Z" fill="#2477D8"/>
<path d="M52.1403 127.255H54.7682C54.7155 128.116 54.4782 128.881 54.0563 129.549C53.6403 130.217 53.0573 130.738 52.3073 131.113C51.5631 131.488 50.6667 131.676 49.6178 131.676C48.7975 131.676 48.0622 131.535 47.4118 131.254C46.7614 130.967 46.2048 130.557 45.7419 130.023C45.2848 129.49 44.9362 128.846 44.696 128.09C44.4557 127.334 44.3356 126.487 44.3356 125.55V124.662C44.3356 123.725 44.4587 122.878 44.7048 122.122C44.9567 121.36 45.3141 120.713 45.777 120.18C46.2458 119.646 46.8053 119.236 47.4557 118.949C48.1061 118.662 48.8327 118.519 49.6354 118.519C50.7018 118.519 51.6012 118.712 52.3337 119.099C53.0719 119.485 53.6432 120.019 54.0475 120.698C54.4577 121.378 54.7038 122.151 54.7858 123.019H52.1491C52.1198 122.503 52.0173 122.066 51.8415 121.709C51.6657 121.346 51.3991 121.073 51.0417 120.892C50.6901 120.704 50.2214 120.61 49.6354 120.61C49.196 120.61 48.8122 120.692 48.484 120.856C48.1559 121.021 47.8805 121.27 47.6579 121.604C47.4352 121.938 47.2682 122.359 47.1569 122.869C47.0514 123.373 46.9987 123.965 46.9987 124.645V125.55C46.9987 126.212 47.0485 126.795 47.1481 127.299C47.2477 127.797 47.4001 128.219 47.6051 128.564C47.8161 128.904 48.0856 129.162 48.4137 129.338C48.7477 129.508 49.1491 129.593 49.6178 129.593C50.1686 129.593 50.6227 129.505 50.9801 129.329C51.3376 129.153 51.61 128.893 51.7975 128.547C51.9909 128.201 52.1051 127.771 52.1403 127.255ZM58.8112 118V131.5H56.2799V118H58.8112ZM58.4508 126.411H57.7565C57.7624 125.749 57.8503 125.14 58.0202 124.583C58.1901 124.021 58.4333 123.534 58.7497 123.124C59.0661 122.708 59.444 122.386 59.8835 122.157C60.3288 121.929 60.821 121.814 61.36 121.814C61.8288 121.814 62.2536 121.882 62.6344 122.017C63.0212 122.146 63.3522 122.356 63.6276 122.649C63.9089 122.937 64.1256 123.314 64.278 123.783C64.4303 124.252 64.5065 124.82 64.5065 125.488V131.5H61.9577V125.471C61.9577 125.049 61.8962 124.718 61.7731 124.478C61.6559 124.231 61.4831 124.059 61.2546 123.959C61.0319 123.854 60.7565 123.801 60.4284 123.801C60.0651 123.801 59.7546 123.868 59.4967 124.003C59.2448 124.138 59.0426 124.325 58.8903 124.565C58.738 124.8 58.6266 125.075 58.5563 125.392C58.486 125.708 58.4508 126.048 58.4508 126.411ZM71.5641 129.355V125.119C71.5641 124.814 71.5143 124.554 71.4147 124.337C71.3151 124.114 71.1598 123.941 70.9489 123.818C70.7438 123.695 70.4772 123.634 70.1491 123.634C69.8678 123.634 69.6247 123.684 69.4196 123.783C69.2145 123.877 69.0563 124.015 68.945 124.196C68.8337 124.372 68.778 124.58 68.778 124.82H66.2467C66.2467 124.416 66.3405 124.032 66.528 123.669C66.7155 123.306 66.988 122.986 67.3454 122.711C67.7028 122.43 68.1276 122.21 68.6198 122.052C69.1178 121.894 69.6745 121.814 70.2897 121.814C71.028 121.814 71.6842 121.938 72.2585 122.184C72.8327 122.43 73.2839 122.799 73.612 123.291C73.946 123.783 74.113 124.398 74.113 125.137V129.206C74.113 129.728 74.1452 130.155 74.2096 130.489C74.2741 130.817 74.3678 131.104 74.4909 131.351V131.5H71.9333C71.8102 131.242 71.7165 130.92 71.652 130.533C71.5934 130.141 71.5641 129.748 71.5641 129.355ZM71.8981 125.708L71.9157 127.141H70.5006C70.1667 127.141 69.8766 127.179 69.6305 127.255C69.3844 127.331 69.1823 127.439 69.0241 127.58C68.8659 127.715 68.7487 127.873 68.6725 128.055C68.6022 128.236 68.5671 128.436 68.5671 128.652C68.5671 128.869 68.6169 129.065 68.7165 129.241C68.8161 129.411 68.9596 129.546 69.1471 129.646C69.3346 129.739 69.5544 129.786 69.8063 129.786C70.1872 129.786 70.5182 129.71 70.7995 129.558C71.0807 129.405 71.2975 129.218 71.4499 128.995C71.6081 128.772 71.6901 128.562 71.696 128.362L72.3639 129.435C72.2702 129.675 72.1413 129.924 71.9772 130.182C71.819 130.439 71.6169 130.683 71.3708 130.911C71.1247 131.134 70.8288 131.318 70.4831 131.465C70.1374 131.605 69.7272 131.676 69.2526 131.676C68.6491 131.676 68.1012 131.556 67.609 131.315C67.1227 131.069 66.736 130.732 66.4489 130.305C66.1676 129.871 66.027 129.379 66.027 128.828C66.027 128.33 66.1208 127.888 66.3083 127.501C66.4958 127.114 66.7712 126.789 67.1344 126.525C67.5036 126.256 67.9635 126.054 68.5143 125.919C69.0651 125.778 69.7038 125.708 70.4303 125.708H71.8981ZM80.7223 121.99V123.783H75.1852V121.99H80.7223ZM76.5563 119.644H79.0876V128.635C79.0876 128.91 79.1227 129.121 79.193 129.268C79.2692 129.414 79.3805 129.517 79.527 129.575C79.6735 129.628 79.8581 129.654 80.0807 129.654C80.2389 129.654 80.3796 129.648 80.5026 129.637C80.6315 129.619 80.7399 129.602 80.8278 129.584L80.8366 131.447C80.6198 131.518 80.3854 131.573 80.1335 131.614C79.8815 131.655 79.6032 131.676 79.2985 131.676C78.7419 131.676 78.2555 131.585 77.8395 131.403C77.4294 131.216 77.113 130.917 76.8903 130.507C76.6676 130.097 76.5563 129.558 76.5563 128.89V119.644ZM92.2712 129.224V121.99H94.8024V131.5H92.4206L92.2712 129.224ZM92.5524 127.272L93.2995 127.255C93.2995 127.888 93.2262 128.477 93.0798 129.021C92.9333 129.561 92.7135 130.029 92.4206 130.428C92.1276 130.82 91.7585 131.128 91.3131 131.351C90.8678 131.567 90.3434 131.676 89.7399 131.676C89.277 131.676 88.8493 131.611 88.4567 131.482C88.07 131.348 87.736 131.14 87.4548 130.858C87.1794 130.571 86.9626 130.205 86.8044 129.76C86.652 129.309 86.5758 128.767 86.5758 128.134V121.99H89.1071V128.151C89.1071 128.433 89.1393 128.67 89.2038 128.863C89.2741 129.057 89.3708 129.215 89.4938 129.338C89.6169 129.461 89.7604 129.549 89.9245 129.602C90.0944 129.654 90.2819 129.681 90.487 129.681C91.0085 129.681 91.4186 129.575 91.7174 129.364C92.0221 129.153 92.236 128.866 92.359 128.503C92.488 128.134 92.5524 127.724 92.5524 127.272ZM101.878 128.872C101.878 128.69 101.825 128.526 101.719 128.38C101.614 128.233 101.418 128.099 101.131 127.976C100.849 127.847 100.442 127.729 99.9089 127.624C99.4284 127.519 98.9801 127.387 98.5641 127.229C98.154 127.064 97.7965 126.868 97.4919 126.64C97.193 126.411 96.9587 126.142 96.7887 125.831C96.6188 125.515 96.5339 125.154 96.5339 124.75C96.5339 124.352 96.6188 123.977 96.7887 123.625C96.9645 123.273 97.2135 122.963 97.5358 122.693C97.8639 122.418 98.2624 122.204 98.7311 122.052C99.2057 121.894 99.7389 121.814 100.331 121.814C101.157 121.814 101.866 121.946 102.458 122.21C103.055 122.474 103.512 122.837 103.829 123.3C104.151 123.757 104.312 124.278 104.312 124.864H101.781C101.781 124.618 101.728 124.398 101.623 124.205C101.523 124.006 101.365 123.851 101.148 123.739C100.937 123.622 100.662 123.563 100.322 123.563C100.041 123.563 99.7975 123.613 99.5924 123.713C99.3874 123.807 99.2292 123.936 99.1178 124.1C99.0124 124.258 98.9596 124.434 98.9596 124.627C98.9596 124.773 98.9889 124.905 99.0475 125.022C99.112 125.134 99.2145 125.236 99.3551 125.33C99.4958 125.424 99.6774 125.512 99.9001 125.594C100.129 125.67 100.41 125.74 100.744 125.805C101.429 125.945 102.042 126.13 102.581 126.358C103.12 126.581 103.548 126.886 103.864 127.272C104.18 127.653 104.339 128.154 104.339 128.775C104.339 129.197 104.245 129.584 104.057 129.936C103.87 130.287 103.6 130.595 103.249 130.858C102.897 131.116 102.475 131.318 101.983 131.465C101.497 131.605 100.949 131.676 100.34 131.676C99.4548 131.676 98.7048 131.518 98.0895 131.201C97.4801 130.885 97.0173 130.483 96.7008 129.997C96.3903 129.505 96.235 129.001 96.235 128.485H98.6344C98.6462 128.831 98.734 129.109 98.8981 129.32C99.068 129.531 99.2819 129.684 99.5397 129.777C99.8034 129.871 100.088 129.918 100.392 129.918C100.72 129.918 100.993 129.874 101.21 129.786C101.426 129.692 101.59 129.569 101.702 129.417C101.819 129.259 101.878 129.077 101.878 128.872Z" fill="white"/>
<path d="M104 17H40C35.6 17 32.04 20.6 32.04 25L32 97L48 81H104C108.4 81 112 77.4 112 73V25C112 20.6 108.4 17 104 17ZM48 45H96V53H48V45ZM80 65H48V57H80V65ZM96 41H48V33H96V41Z" fill="#8199D8"/>
</g>
</svg>
